<svg width="75" height="42" viewBox="0 0 75 42" fill="none" xmlns="http://www.w3.org/2000/svg">
<mask id="mask0_43_468" style="mask-type:alpha" maskUnits="userSpaceOnUse" x="0" y="0" width="75" height="42">
<path fill-rule="evenodd" clip-rule="evenodd" d="M0 4.74072C0 2.53158 1.79086 0.740723 4 0.740723H70.8026C73.0117 0.740723 74.8026 2.53158 74.8026 4.74072V37.2588C74.8026 39.4679 73.0117 41.2588 70.8026 41.2588H4C1.79086 41.2588 0 39.4679 0 37.2588V4.74072Z" fill="white"/>
</mask>
<g mask="url(#mask0_43_468)">
<path fill-rule="evenodd" clip-rule="evenodd" d="M39.3832 33.9117V33.1584C39.3832 33.1128 39.3747 33.0971 39.3589 33.0808C39.3425 33.0639 39.3195 33.0509 39.2893 33.0424C39.2605 33.0333 39.2309 33.0287 39.1496 33.0287H35.7817C35.7003 33.0287 35.6708 33.0333 35.6406 33.0424C35.6111 33.0509 35.5875 33.0639 35.5711 33.0808C35.556 33.0971 35.5468 33.1128 35.5468 33.1584V33.9117C35.5468 33.9567 35.556 33.973 35.5711 33.9893C35.5875 34.0062 35.6111 34.0193 35.6406 34.0284C35.6708 34.0369 35.7003 34.0414 35.7817 34.0414H39.1496C39.2309 34.0414 39.2605 34.0369 39.2893 34.0284C39.3195 34.0193 39.3425 34.0062 39.3589 33.9893C39.3747 33.973 39.3832 33.9567 39.3832 33.9117ZM47.3158 34.4461C47.3112 34.4559 47.3112 34.4683 47.3112 34.4937V35.2353C47.3112 35.2607 47.3112 35.2738 47.3158 35.2829C47.3204 35.2914 47.327 35.2985 47.3355 35.3031C47.346 35.3083 47.3578 35.3083 47.3834 35.3083H47.9504V36.7551C47.9504 36.7798 47.9504 36.7929 47.9557 36.8026C47.9596 36.8111 47.9662 36.8176 47.9754 36.8222C47.9845 36.8274 47.9977 36.8274 48.0226 36.8274H49.1566C49.1822 36.8274 49.1947 36.8274 49.2045 36.8222C49.213 36.8176 49.2196 36.8111 49.2242 36.8026C49.2288 36.7929 49.2288 36.7798 49.2288 36.7551V33.101C49.2288 33.0756 49.2288 33.0626 49.2242 33.0535C49.2196 33.0443 49.213 33.0378 49.2045 33.0333C49.1947 33.0287 49.1822 33.0287 49.1566 33.0287H48.0226C47.9977 33.0287 47.9845 33.0287 47.9754 33.0333C47.9701 33.0359 47.9655 33.0398 47.9616 33.0437C47.9603 33.0456 47.9583 33.0476 47.957 33.0496L47.9557 33.0535C47.9504 33.0626 47.9504 33.0756 47.9504 33.101V34.4214H47.3834C47.3578 34.4214 47.346 34.4214 47.3355 34.4266C47.327 34.4311 47.3204 34.4376 47.3158 34.4461ZM56.0058 35.9404V33.915H58.4904C58.5159 33.915 58.5291 33.915 58.5383 33.9098C58.5475 33.9052 58.554 33.8987 58.5586 33.8902C58.5639 33.8805 58.5639 33.8681 58.5639 33.8433V33.101C58.5639 33.0756 58.5639 33.0626 58.5586 33.0535C58.554 33.0443 58.5475 33.0378 58.5383 33.0333C58.5291 33.0287 58.5159 33.0287 58.4904 33.0287H55.9336H55.8234H54.9276C54.902 33.0287 54.8895 33.0287 54.8797 33.0333C54.8718 33.0378 54.8646 33.0443 54.86 33.0535C54.8548 33.0626 54.8548 33.0756 54.8548 33.101V36.7551C54.8548 36.7798 54.8548 36.7929 54.86 36.8026C54.8646 36.8111 54.8718 36.8176 54.8797 36.8222C54.8895 36.8274 54.902 36.8274 54.9276 36.8274H55.9336H55.9474H58.4904C58.5159 36.8274 58.5291 36.8274 58.5383 36.8222C58.5475 36.8176 58.554 36.8111 58.5586 36.8026C58.5639 36.7929 58.5639 36.7798 58.5639 36.7544V36.0128C58.5639 35.988 58.5639 35.975 58.5586 35.9652C58.554 35.9574 58.5475 35.9502 58.5383 35.9457C58.5291 35.9404 58.5159 35.9404 58.4904 35.9404H56.0058ZM55.6272 31.9136C55.6226 31.9234 55.6226 31.9357 55.6226 31.9612V32.7034C55.6226 32.7288 55.6226 32.7412 55.6272 32.751C55.6317 32.7588 55.639 32.766 55.6475 32.7706C55.6573 32.7758 55.6692 32.7758 55.6947 32.7758H56.4448C56.4704 32.7758 56.4829 32.7758 56.4927 32.7706C56.5013 32.766 56.5085 32.7588 56.5131 32.751C56.517 32.7412 56.517 32.7288 56.517 32.7034V31.9612C56.517 31.9357 56.517 31.9234 56.5131 31.9136C56.5098 31.9077 56.5052 31.9025 56.5006 31.8986C56.498 31.8966 56.4954 31.8953 56.4927 31.8934C56.4829 31.8888 56.4704 31.8888 56.4448 31.8888H55.6947C55.6692 31.8888 55.6573 31.8888 55.6475 31.8934C55.639 31.8979 55.6317 31.9051 55.6272 31.9136ZM56.9009 31.9612C56.9009 31.9357 56.9009 31.9234 56.9055 31.9136C56.9101 31.9051 56.9173 31.8979 56.9252 31.8934C56.9351 31.8888 56.9482 31.8888 56.9738 31.8888H57.7232C57.7488 31.8888 57.7619 31.8888 57.7718 31.8934C57.7796 31.8979 57.7869 31.9051 57.7914 31.9136C57.796 31.9234 57.796 31.9357 57.796 31.9612V32.7034C57.796 32.7288 57.796 32.7412 57.7914 32.751C57.7869 32.7588 57.7796 32.766 57.7718 32.7706C57.7619 32.7758 57.7488 32.7758 57.7232 32.7758H56.9738C56.9482 32.7758 56.9351 32.7758 56.9252 32.7706C56.9173 32.766 56.9101 32.7588 56.9055 32.751C56.9009 32.7412 56.9009 32.7288 56.9009 32.7034V31.9612ZM56.267 34.4457C56.2624 34.4555 56.2624 34.4679 56.2624 34.4933V35.2349C56.2624 35.2603 56.2624 35.2734 56.267 35.2825C56.2709 35.291 56.2781 35.2981 56.2867 35.3027C56.2958 35.3079 56.309 35.3079 56.3339 35.3079H57.9798C58.0047 35.3079 58.0178 35.3079 58.027 35.3027C58.0355 35.2981 58.0428 35.291 58.0467 35.2825C58.052 35.2734 58.052 35.2603 58.052 35.2349V34.4933C58.052 34.4679 58.052 34.4555 58.0467 34.4457C58.0428 34.4372 58.0355 34.4307 58.027 34.4262C58.0178 34.4209 58.0047 34.421 57.9798 34.421H56.3339C56.309 34.421 56.2958 34.4209 56.2867 34.4262C56.2781 34.4307 56.2709 34.4372 56.267 34.4457ZM45.2703 33.0535C45.2651 33.0626 45.2651 33.0756 45.2651 33.101V36.7551C45.2651 36.7798 45.2651 36.7929 45.2703 36.8026C45.2749 36.8111 45.2815 36.8176 45.29 36.8222C45.2999 36.8274 45.3123 36.8274 45.3379 36.8274H46.4713C46.4968 36.8274 46.5093 36.8274 46.5192 36.8222C46.5277 36.8176 46.5343 36.8111 46.5388 36.8026C46.5441 36.7929 46.5441 36.7798 46.5441 36.7551V35.3083H47.1104C47.136 35.3083 47.1485 35.3083 47.159 35.3031C47.1669 35.2985 47.1741 35.2914 47.178 35.2829C47.1833 35.2738 47.1833 35.2607 47.1833 35.2353V34.4937C47.1833 34.4683 47.1833 34.4559 47.178 34.4461C47.1741 34.4376 47.1669 34.4311 47.159 34.4266C47.1485 34.4214 47.136 34.4214 47.1104 34.4214H46.5441V33.101C46.5441 33.0756 46.5441 33.0626 46.5388 33.0535C46.5343 33.0443 46.5277 33.0378 46.5192 33.0333C46.5093 33.0287 46.4968 33.0287 46.4713 33.0287H45.3379C45.3123 33.0287 45.2999 33.0287 45.29 33.0333C45.2815 33.0378 45.2749 33.0443 45.2703 33.0535ZM36.8264 34.2403C36.8264 34.2148 36.8264 34.2025 36.8303 34.1927C36.8349 34.1842 36.8422 34.177 36.8507 34.1725C36.8599 34.1686 36.873 34.1686 36.8986 34.1686H38.0319C38.0569 34.1686 38.07 34.1686 38.0798 34.1725C38.0877 34.177 38.0949 34.1842 38.0995 34.1927C38.1048 34.2025 38.1048 34.2148 38.1048 34.2403V36.7551C38.1048 36.7799 38.1048 36.7929 38.0995 36.8027C38.0949 36.8112 38.0877 36.8177 38.0798 36.8223C38.07 36.8275 38.0569 36.8275 38.0319 36.8275H36.8986C36.873 36.8275 36.8599 36.8275 36.8507 36.8223C36.8422 36.8177 36.8349 36.8112 36.8303 36.8027C36.8264 36.7929 36.8264 36.7799 36.8264 36.7551V34.2403ZM66.0024 33.0287C65.9899 33.0287 65.9794 33.0385 65.9794 33.0515V33.8941C65.9794 33.9052 65.9892 33.915 66.0011 33.915H66.7479C67.03 33.915 67.2584 34.1418 67.2584 34.4214C67.2584 34.7009 67.03 34.9277 66.7479 34.9277H66.0011C65.9892 34.9277 65.9794 34.9368 65.9794 34.9486V35.7912C65.9794 35.8036 65.9899 35.814 66.0024 35.814H66.8785C67.6535 35.814 68.2808 35.191 68.2808 34.4214C68.2808 33.6524 67.6535 33.0287 66.8785 33.0287H66.0024ZM27.6193 33.0515C27.6193 33.0385 27.6298 33.0287 27.6423 33.0287H28.5184C29.2927 33.0287 29.9208 33.6524 29.9208 34.4214C29.9208 35.191 29.2927 35.814 28.5184 35.814H27.6423C27.6298 35.814 27.6193 35.8036 27.6193 35.7912V34.9486C27.6193 34.9368 27.6285 34.9277 27.6397 34.9277H28.3878C28.67 34.9277 28.8977 34.7009 28.8977 34.4214C28.8977 34.1418 28.67 33.915 28.3878 33.915H27.6397C27.6285 33.915 27.6193 33.9052 27.6193 33.8941V33.0515ZM64.5783 33.0535C64.5731 33.0626 64.5731 33.0756 64.5731 33.101V36.7551C64.5731 36.7798 64.5731 36.7929 64.5783 36.8026C64.5822 36.8111 64.5895 36.8176 64.598 36.8222C64.6078 36.8274 64.6203 36.8274 64.6459 36.8274H65.6513C65.6769 36.8274 65.6893 36.8274 65.6992 36.8222C65.7077 36.8176 65.7149 36.8111 65.7195 36.8026C65.7241 36.7929 65.7241 36.7798 65.7241 36.7551V33.101C65.7241 33.0756 65.7241 33.0626 65.7195 33.0535C65.7149 33.0443 65.7077 33.0378 65.6992 33.0333C65.6893 33.0287 65.6769 33.0287 65.6513 33.0287H64.6459C64.6203 33.0287 64.6078 33.0287 64.598 33.0333C64.5895 33.0378 64.5822 33.0443 64.5783 33.0535ZM26.213 33.101C26.213 33.0756 26.213 33.0626 26.2176 33.0535C26.2222 33.0443 26.2294 33.0378 26.2379 33.0333C26.2471 33.0287 26.2602 33.0287 26.2858 33.0287H27.2912C27.3161 33.0287 27.3293 33.0287 27.3384 33.0333C27.3476 33.0378 27.3542 33.0443 27.3588 33.0535C27.364 33.0626 27.364 33.0756 27.364 33.101V36.7551C27.364 36.7798 27.364 36.7929 27.3588 36.8026C27.3542 36.8111 27.3476 36.8176 27.3384 36.8222C27.3293 36.8274 27.3161 36.8274 27.2912 36.8274H26.2858C26.2602 36.8274 26.2471 36.8274 26.2379 36.8222C26.2294 36.8176 26.2222 36.8111 26.2176 36.8026C26.213 36.7929 26.213 36.7798 26.213 36.7551V33.101ZM17.9181 35.181C17.899 35.181 17.8813 35.1934 17.8754 35.211L17.6077 35.9695C17.5978 35.9995 17.6195 36.0302 17.651 36.0302H18.802C18.8342 36.0302 18.8565 35.9969 18.8434 35.9669L18.5172 35.2084C18.51 35.1921 18.4936 35.181 18.4759 35.181H17.9181ZM17.7336 33.0919C17.7205 33.0619 17.7421 33.0287 17.775 33.0287H18.8013C18.819 33.0287 18.8348 33.0391 18.8427 33.0554L20.4905 36.7635C20.5036 36.7935 20.4813 36.8274 20.4485 36.8274H19.4228C19.4051 36.8274 19.3887 36.8163 19.3808 36.8007L17.7336 33.0919ZM18.09 34.2352C18.0953 34.2463 18.0959 34.258 18.0913 34.2698L17.0932 36.8094C17.0866 36.8276 17.0696 36.8387 17.0512 36.8387H15.9894C15.9566 36.8387 15.9349 36.8061 15.9467 36.7768L17.4771 33.057C17.4928 33.0198 17.5447 33.0192 17.5604 33.0557L18.09 34.2352ZM8.89535 33.0287H9.53519H10.4126H10.5406C10.5661 33.0287 10.578 33.0287 10.5885 33.0333C10.597 33.0378 10.6036 33.0443 10.6081 33.0535C10.6127 33.0626 10.6127 33.0756 10.6127 33.101V36.7551C10.6127 36.7798 10.6127 36.7929 10.6081 36.8026C10.6036 36.8111 10.597 36.8176 10.5885 36.8222C10.578 36.8274 10.5661 36.8274 10.5406 36.8274H9.53519C9.5096 36.8274 9.49647 36.8274 9.48663 36.8222C9.47875 36.8176 9.47153 36.8111 9.46694 36.8026C9.46235 36.7929 9.46235 36.7798 9.46235 36.7551V33.915H8.89535C8.87042 33.915 8.85729 33.915 8.8481 33.9098C8.83892 33.9052 8.8317 33.8987 8.82776 33.8902C8.82317 33.8805 8.82317 33.8681 8.82317 33.8433V33.101C8.82317 33.0756 8.82317 33.0626 8.82776 33.0535C8.8317 33.0443 8.83892 33.0378 8.8481 33.0333C8.85729 33.0287 8.87042 33.0287 8.89535 33.0287ZM6.78166 33.0535C6.77707 33.0626 6.77707 33.0756 6.77707 33.101V36.7551C6.77707 36.7798 6.77707 36.7929 6.78166 36.8026C6.78626 36.8111 6.79348 36.8176 6.80201 36.8222C6.81119 36.8274 6.82432 36.8274 6.84991 36.8274H7.85528C7.88087 36.8274 7.89334 36.8274 7.90318 36.8222C7.91171 36.8176 7.91893 36.8111 7.92353 36.8026C7.92746 36.7929 7.92746 36.7798 7.92746 36.7551V33.915H8.49512C8.52005 33.915 8.53252 33.915 8.54236 33.9098C8.5509 33.9052 8.55746 33.8987 8.56205 33.8902C8.5673 33.8805 8.5673 33.8681 8.5673 33.8433V33.101C8.5673 33.0756 8.5673 33.0626 8.56205 33.0535C8.55746 33.0443 8.5509 33.0378 8.54236 33.0333C8.53252 33.0287 8.52005 33.0287 8.49512 33.0287H7.85528H6.97722H6.84991C6.82432 33.0287 6.81119 33.0287 6.80201 33.0333C6.79348 33.0378 6.78626 33.0443 6.78166 33.0535ZM6.77707 27.9448C6.77707 27.8177 6.77707 27.7552 6.80201 27.707C6.82366 27.6646 6.85779 27.6301 6.9011 27.6086C6.94966 27.5838 7.01332 27.5838 7.13997 27.5838H67.7907C67.9173 27.5838 67.981 27.5838 68.0295 27.6086C68.0722 27.6301 68.1076 27.6646 68.1286 27.707C68.1536 27.7552 68.1536 27.8177 68.1536 27.9448V28.1103C68.1536 28.2361 68.1536 28.2993 68.1286 28.3476C68.1076 28.3893 68.0722 28.4245 68.0295 28.446C67.981 28.4701 67.9173 28.4701 67.7907 28.4701H7.13997C7.01332 28.4701 6.94966 28.4701 6.9011 28.446C6.85779 28.4245 6.82366 28.3893 6.80201 28.3476C6.77707 28.2993 6.77707 28.2361 6.77707 28.1103V27.9448ZM36.6801 12.0962C36.707 12.1548 36.7083 12.2213 36.6847 12.2813L32.0208 24.1563C31.9853 24.2482 31.8954 24.3088 31.7957 24.3088H26.8797C26.7091 24.3088 26.5923 24.1361 26.6566 23.9784L33.8799 6.41997C33.9258 6.30984 34.082 6.30788 34.1306 6.41671L36.6801 12.0962ZM35.4463 6.31788C35.4063 6.2286 35.4726 6.12759 35.5704 6.12759H40.6451C40.7396 6.12759 40.8262 6.18299 40.8649 6.26966L48.8101 23.9715C48.8816 24.1305 48.7648 24.309 48.5896 24.309H43.6783C43.5825 24.309 43.4965 24.2537 43.4578 24.167L35.4463 6.31788ZM62.8031 6.12759C62.6699 6.12759 62.5623 6.23447 62.5623 6.36676V12.8615H59.978C59.9032 12.8615 59.8422 12.9221 59.8422 12.9964V17.4402C59.8422 17.5145 59.9032 17.5758 59.978 17.5758H62.5623V24.0692C62.5623 24.2022 62.6699 24.309 62.8031 24.309H67.761C67.8936 24.309 68.0019 24.2022 68.0019 24.0692V6.36676C68.0019 6.23447 67.8936 6.12759 67.761 6.12759H62.8031ZM50.3214 6.36676C50.3214 6.23447 50.4297 6.12759 50.5629 6.12759H55.5209C55.6541 6.12759 55.7617 6.23447 55.7617 6.36676V12.8615H58.346C58.4215 12.8615 58.4825 12.9221 58.4825 12.9964V17.4402C58.4825 17.5145 58.4215 17.5758 58.346 17.5758H55.7617V24.0692C55.7617 24.2022 55.6541 24.309 55.5209 24.309H50.5629C50.4297 24.309 50.3214 24.2022 50.3214 24.0692V6.36676ZM19.0409 24.0692V10.8413H16.4566C16.3812 10.8413 16.3201 10.7806 16.3201 10.7064V6.26249C16.3201 6.1882 16.3812 6.12759 16.4566 6.12759H19.2818H20.839H24.2397C24.3729 6.12759 24.4812 6.23447 24.4812 6.36676V24.0692C24.4812 24.2022 24.3729 24.309 24.2397 24.309H19.2818C19.1485 24.309 19.0409 24.2022 19.0409 24.0692ZM6.80057 6.36676C6.80057 6.23447 6.90819 6.12759 7.04141 6.12759H9.76154H11.9987H14.8245C14.8993 6.12759 14.9603 6.1882 14.9603 6.26249V10.7064C14.9603 10.7806 14.8993 10.8413 14.8245 10.8413H12.2408V24.0692C12.2408 24.2022 12.1325 24.309 11.9987 24.309H7.04141C6.90819 24.309 6.80057 24.2022 6.80057 24.0692V6.36676ZM36.0081 16.9013C35.9517 16.9013 35.9005 16.9365 35.8808 16.99L34.5296 20.6199C34.4712 20.7756 34.5873 20.9424 34.7553 20.9424H40.4955C40.6714 20.9424 40.7882 20.7619 40.7154 20.6036L39.0695 16.9815C39.0472 16.9326 38.9986 16.9013 38.9455 16.9013H36.0081ZM0.0787492 1.13304C0 1.28684 0 1.48821 0 1.89095V40.1086C0 40.5113 0 40.7127 0.0787492 40.8665C0.148311 41.0014 0.259216 41.1115 0.395059 41.1799C0.549932 41.2588 0.752711 41.2588 1.15827 41.2588H73.6443C74.0499 41.2588 74.2527 41.2588 74.4075 41.1799C74.5434 41.1115 74.6543 41.0014 74.7238 40.8665C74.8026 40.7127 74.8026 40.5113 74.8026 40.1086V1.89095C74.8026 1.48821 74.8026 1.28684 74.7238 1.13304C74.6543 0.997488 74.5434 0.888004 74.4075 0.818925C74.2527 0.740723 74.0499 0.740723 73.6443 0.740723H1.15827C0.752711 0.740723 0.549932 0.740723 0.395059 0.818925C0.259216 0.888004 0.148311 0.997488 0.0787492 1.13304Z" fill="white"/>
</g>
</svg>
