<?xml version="1.0" encoding="UTF-8"?>
<!DOCTYPE svg PUBLIC "-//W3C//DTD SVG 1.1//EN" "http://www.w3.org/Graphics/SVG/1.1/DTD/svg11.dtd">
<svg xmlns="http://www.w3.org/2000/svg" xmlns:xlink="http://www.w3.org/1999/xlink">
<symbol id="check" viewBox="0 0 13 11">
	<path fill="#fff" d="m0 4.907.855-.8 4.19 2.272L12.267.142 13 .807l-7.64 9.335L0 4.907Z"/>
</symbol>
<symbol id="chevron" viewBox="0 0 8 5">
	<path stroke="#fff" stroke-linecap="round" d="m7.11 4.42-3.055-3L1 4.42"/>
</symbol>
<symbol id="logo" viewBox="0 0 75 42">
	<mask id="logo-a" width="75" height="42" x="0" y="0" maskUnits="userSpaceOnUse" style="mask-type:alpha">
		<path fill="#fff" fill-rule="evenodd" d="M0 4.74a4 4 0 0 1 4-4h66.803a4 4 0 0 1 4 4V37.26a4 4 0 0 1-4 4H4a4 4 0 0 1-4-4V4.74Z" clip-rule="evenodd"/>
	</mask>
	<g mask="url(#logo-a)">
		<path fill="#fff" fill-rule="evenodd" d="M39.383 33.912v-.754c0-.045-.008-.06-.024-.077a.152.152 0 0 0-.07-.039.431.431 0 0 0-.14-.013h-3.367a.448.448 0 0 0-.141.013.155.155 0 0 0-.07.039c-.015.016-.024.032-.024.077v.754c0 .045.009.061.024.077.017.017.04.03.07.04.03.008.06.012.14.012h3.369c.08 0 .11-.004.14-.013a.158.158 0 0 0 .069-.039c.016-.016.024-.032.024-.077Zm7.933.534c-.005.01-.005.022-.005.048v.741c0 .026 0 .039.005.048a.05.05 0 0 0 .02.02c.01.005.022.005.047.005h.567v1.447c0 .025 0 .038.006.048a.04.04 0 0 0 .02.02c.008.004.022.004.047.004h1.134c.025 0 .038 0 .048-.005a.048.048 0 0 0 .02-.02c.004-.01.004-.022.004-.047v-3.654c0-.025 0-.038-.005-.047a.045.045 0 0 0-.02-.02c-.01-.005-.022-.005-.047-.005h-1.134c-.025 0-.039 0-.048.004a.053.053 0 0 0-.013.01l-.005.007-.001.004c-.006.009-.006.022-.006.047v1.32h-.567c-.025 0-.037 0-.047.006a.047.047 0 0 0-.02.02Zm8.69 1.494v-2.025h2.484c.026 0 .04 0 .048-.005a.045.045 0 0 0 .02-.02c.006-.01.006-.022.006-.047v-.742c0-.025 0-.038-.005-.047a.043.043 0 0 0-.02-.02c-.01-.005-.023-.005-.049-.005h-3.562c-.026 0-.038 0-.048.004a.048.048 0 0 0-.02.02c-.005.01-.005.023-.005.048v3.654c0 .025 0 .038.005.048a.051.051 0 0 0 .02.02c.01.004.022.004.048.004H58.49c.026 0 .04 0 .048-.005a.045.045 0 0 0 .02-.02c.006-.01.006-.022.006-.048v-.741c0-.025 0-.038-.005-.048a.048.048 0 0 0-.02-.02c-.01-.005-.023-.005-.049-.005h-2.484Zm-.379-4.026c-.004.01-.004.022-.004.047v.742c0 .026 0 .038.004.048a.053.053 0 0 0 .02.02c.01.005.022.005.048.005h.75c.025 0 .038 0 .048-.005a.053.053 0 0 0 .02-.02c.004-.01.004-.022.004-.048v-.742c0-.025 0-.038-.004-.047a.056.056 0 0 0-.012-.015l-.008-.006c-.01-.004-.023-.004-.048-.004h-.75c-.026 0-.038 0-.047.004a.05.05 0 0 0-.02.02Zm1.274.047c0-.025 0-.038.005-.047a.052.052 0 0 1 .02-.02c.01-.005.022-.005.048-.005h.75c.025 0 .038 0 .048.004a.052.052 0 0 1 .02.02c.004.01.004.023.004.048v.742c0 .026 0 .038-.005.048a.057.057 0 0 1-.02.02c-.01.005-.022.005-.048.005h-.75c-.025 0-.038 0-.048-.005a.057.057 0 0 1-.02-.02c-.004-.01-.004-.022-.004-.048v-.742Zm-.634 2.485c-.005.01-.005.022-.005.047v.742c0 .025 0 .038.005.047a.045.045 0 0 0 .02.02c.009.006.022.006.047.006h1.646c.025 0 .038 0 .047-.005a.045.045 0 0 0 .02-.02c.005-.01.005-.023.005-.048v-.742c0-.025 0-.038-.005-.047a.043.043 0 0 0-.02-.02c-.01-.005-.022-.005-.047-.005h-1.646c-.025 0-.038 0-.047.005a.043.043 0 0 0-.02.02ZM45.27 33.054c-.005.009-.005.022-.005.047v3.654c0 .025 0 .038.005.048a.048.048 0 0 0 .02.02c.01.004.022.004.048.004h1.133c.026 0 .038 0 .048-.005a.047.047 0 0 0 .02-.02c.005-.01.005-.022.005-.047v-1.447h.566c.026 0 .038 0 .049-.005a.047.047 0 0 0 .019-.02c.005-.01.005-.022.005-.048v-.741c0-.026 0-.038-.005-.048a.045.045 0 0 0-.019-.02c-.01-.005-.023-.005-.049-.005h-.566v-1.32c0-.025 0-.038-.005-.047a.044.044 0 0 0-.02-.02c-.01-.005-.022-.005-.048-.005h-1.133c-.026 0-.038 0-.048.004a.045.045 0 0 0-.02.02Zm-8.444 1.186c0-.025 0-.038.004-.047a.05.05 0 0 1 .02-.02c.01-.004.023-.004.049-.004h1.133c.025 0 .038 0 .048.004a.052.052 0 0 1 .02.02c.005.01.005.022.005.047v2.515c0 .025 0 .038-.005.048a.051.051 0 0 1-.02.02c-.01.005-.023.005-.048.005h-1.133c-.026 0-.04 0-.048-.006a.05.05 0 0 1-.02-.02c-.005-.01-.005-.022-.005-.047V34.24Zm29.176-1.211a.023.023 0 0 0-.023.022v.843c0 .011.01.021.022.021h.747c.282 0 .51.227.51.506 0 .28-.228.507-.51.507H66a.021.021 0 0 0-.022.02v.843c0 .013.01.023.023.023h.877c.774 0 1.402-.623 1.402-1.393 0-.769-.628-1.392-1.403-1.392h-.876Zm-38.383.022c0-.013.01-.022.023-.022h.876c.775 0 1.403.623 1.403 1.392 0 .77-.628 1.393-1.403 1.393h-.876a.023.023 0 0 1-.023-.023v-.842c0-.012.01-.021.02-.021h.749a.508.508 0 1 0 0-1.013h-.748a.021.021 0 0 1-.02-.02v-.844Zm36.96.002c-.006.01-.006.023-.006.048v3.654c0 .025 0 .038.005.048a.044.044 0 0 0 .02.02c.01.004.022.004.048.004h1.005c.026 0 .038 0 .048-.005a.05.05 0 0 0 .02-.02c.005-.01.005-.022.005-.047v-3.654c0-.025 0-.038-.005-.047a.046.046 0 0 0-.02-.02c-.01-.005-.022-.005-.048-.005h-1.005c-.026 0-.038 0-.048.004a.042.042 0 0 0-.02.02Zm-38.366.048c0-.025 0-.038.005-.047a.046.046 0 0 1 .02-.02c.01-.005.022-.005.048-.005h1.005c.025 0 .038 0 .047.004.01.005.016.011.02.02.006.01.006.023.006.048v3.654c0 .025 0 .038-.005.048a.046.046 0 0 1-.02.02c-.01.004-.023.004-.048.004h-1.005c-.026 0-.039 0-.048-.005a.05.05 0 0 1-.02-.02c-.005-.01-.005-.022-.005-.047v-3.654Zm-8.295 2.08a.045.045 0 0 0-.043.03l-.267.758c-.01.03.011.061.043.061h1.151a.045.045 0 0 0 .041-.063l-.326-.759a.046.046 0 0 0-.041-.027h-.558Zm-.184-2.09a.045.045 0 0 1 .041-.062h1.026c.018 0 .034.01.042.026l1.648 3.709a.046.046 0 0 1-.043.063h-1.025a.048.048 0 0 1-.042-.026l-1.647-3.71Zm.356 1.144a.042.042 0 0 1 .001.035l-.998 2.54a.044.044 0 0 1-.042.029H15.99a.045.045 0 0 1-.042-.062l1.53-3.72c.016-.037.068-.038.083-.001l.53 1.18ZM8.895 33.03h1.646c.025 0 .037 0 .047.004a.044.044 0 0 1 .02.02c.005.01.005.023.005.048v3.654c0 .025 0 .038-.005.048a.047.047 0 0 1-.02.02c-.01.004-.022.004-.047.004H9.535c-.025 0-.039 0-.048-.005a.052.052 0 0 1-.02-.02c-.005-.01-.005-.022-.005-.047v-2.84h-.567c-.025 0-.038 0-.047-.005a.042.042 0 0 1-.02-.02c-.005-.01-.005-.022-.005-.047v-.742c0-.025 0-.038.005-.047a.04.04 0 0 1 .02-.02c.01-.005.022-.005.047-.005Zm-2.113.024c-.005.01-.005.023-.005.048v3.654c0 .025 0 .038.005.048a.05.05 0 0 0 .02.02c.01.004.022.004.048.004h1.005c.026 0 .038 0 .048-.005a.05.05 0 0 0 .02-.02c.004-.01.004-.022.004-.047v-2.84h.568c.025 0 .038 0 .047-.005a.047.047 0 0 0 .02-.02c.005-.01.005-.022.005-.047v-.742c0-.025 0-.038-.005-.047a.045.045 0 0 0-.02-.02c-.01-.005-.022-.005-.047-.005H6.85c-.026 0-.039 0-.048.004a.046.046 0 0 0-.02.02Zm-.005-5.108c0-.127 0-.19.025-.238a.222.222 0 0 1 .1-.098c.048-.025.111-.025.238-.025h60.65c.127 0 .191 0 .24.025a.221.221 0 0 1 .099.098c.025.048.025.11.025.238v.165c0 .126 0 .19-.025.238a.225.225 0 0 1-.1.098c-.048.024-.112.024-.238.024H7.14c-.127 0-.19 0-.239-.024a.225.225 0 0 1-.099-.098c-.025-.049-.025-.112-.025-.238v-.165ZM36.68 12.096a.236.236 0 0 1 .005.185L32.02 24.156a.24.24 0 0 1-.225.153H26.88a.24.24 0 0 1-.223-.33L33.88 6.42a.137.137 0 0 1 .25-.003l2.55 5.68Zm-1.234-5.778a.136.136 0 0 1 .124-.19h5.075a.24.24 0 0 1 .22.142L48.81 23.97a.24.24 0 0 1-.22.338h-4.912a.24.24 0 0 1-.22-.142l-8.012-17.85Zm27.357-.19a.24.24 0 0 0-.24.239v6.494h-2.585a.136.136 0 0 0-.136.135v4.444c0 .075.061.136.136.136h2.584v6.493c0 .133.108.24.241.24h4.958a.24.24 0 0 0 .24-.24V6.367a.24.24 0 0 0-.24-.24h-4.958Zm-12.482.239a.24.24 0 0 1 .242-.24h4.958a.24.24 0 0 1 .24.24v6.494h2.585c.076 0 .137.061.137.135v4.444a.136.136 0 0 1-.137.136h-2.584v6.493a.24.24 0 0 1-.241.24h-4.958a.24.24 0 0 1-.242-.24V6.367Zm-31.28 17.702V10.841h-2.584a.136.136 0 0 1-.137-.135V6.262c0-.074.061-.134.137-.134h7.782a.24.24 0 0 1 .242.239v17.702a.24.24 0 0 1-.241.24h-4.958a.24.24 0 0 1-.241-.24ZM6.8 6.367a.24.24 0 0 1 .24-.24h7.783c.075 0 .136.061.136.135v4.444a.136.136 0 0 1-.136.135h-2.583V24.07a.24.24 0 0 1-.242.24H7.04a.24.24 0 0 1-.24-.24V6.367ZM36.008 16.9a.136.136 0 0 0-.127.089l-1.351 3.63a.24.24 0 0 0 .225.322h5.74a.24.24 0 0 0 .22-.338l-1.646-3.622a.137.137 0 0 0-.123-.08h-2.938ZM.078 1.133C0 1.287 0 1.488 0 1.891v38.218c0 .402 0 .604.079.758.07.134.18.245.316.313.155.079.358.079.763.079h72.486c.406 0 .609 0 .763-.08a.72.72 0 0 0 .317-.313c.079-.153.079-.355.079-.757V1.89c0-.403 0-.604-.08-.758a.723.723 0 0 0-.316-.314C74.254.74 74.05.74 73.644.74H1.158C.753.74.55.74.395.819a.723.723 0 0 0-.316.314Z" clip-rule="evenodd"/>
	</g>
</symbol>
<symbol id="sofa" viewBox="0 0 21 15">
	<path fill="#8F95AC" fill-opacity=".5" fill-rule="evenodd" d="M5.131 8.407V6.196c0-2.06-.943-3.021-2.967-3.021H2v-1.58C2 .94 2.53.407 3.179.407H17.82c.65 0 1.18.533 1.18 1.188v1.507h-.165c-1.975 0-3.008 1.556-3.008 3.094v2.211H5.13Z" clip-rule="evenodd"/>
	<path fill="#8F95AC" fill-rule="evenodd" d="M17.393 14.407c-.09 0-.163-.07-.163-.153v-.981H3.77v.98c0 .085-.074.154-.164.154H2.187c-.089 0-.163-.07-.163-.153v-.981h-.849C.526 13.273 0 12.78 0 12.175v-6.13c0-.477.192-.638.76-.638h1.85c.5 0 .754.26.754.77V9.34c0 .437.381.792.849.792h12.573c.469 0 .849-.355.849-.792V6.505c0-.257.064-1.098.913-1.098h1.61c.696 0 .842.596.842 1.098v5.67c0 .606-.527 1.098-1.177 1.098h-.847v.98c0 .083-.076.154-.165.154h-1.418Z" clip-rule="evenodd"/>
</symbol>
<symbol id="star" viewBox="0 0 18 18">
	<path d="M8.077.72c.341-.821 1.505-.821 1.846 0l1.752 4.211a1 1 0 0 0 .843.613l4.547.365c.887.07 1.246 1.177.57 1.756l-3.463 2.967a1 1 0 0 0-.322.992l1.058 4.437c.206.865-.735 1.549-1.494 1.085L9.52 14.768a1 1 0 0 0-1.042 0l-3.893 2.378c-.759.464-1.7-.22-1.494-1.085l1.059-4.437a1 1 0 0 0-.323-.992L.364 7.665C-.31 7.086.048 5.98.935 5.909l4.547-.365a1 1 0 0 0 .843-.613L8.077.72Z"/>
</symbol>
</svg>